<svg width="24" height="24" viewBox="0 0 24 24" fill="currentColor" xmlns="http://www.w3.org/2000/svg">
<path opacity="0.5" d="M2.32258 12.0009C2.32258 12.6424 1.80276 13.1622 1.16129 13.1622C0.519814 13.1622 0 12.6424 0 12.0009C0 11.3597 0.519822 10.8396 1.16129 10.8396C1.80277 10.8396 2.32258 11.3597 2.32258 12.0009Z" fill="white"/>
<path opacity="0.5" d="M3.28886 5.57684C3.84444 5.89774 4.03474 6.60783 3.71416 7.16343C3.39326 7.71869 2.68317 7.90899 2.12758 7.58841C1.57231 7.26783 1.38201 6.55741 1.70259 6.00215C2.02317 5.44657 2.73358 5.25627 3.28885 5.57684" fill="white"/>
<path opacity="0.5" d="M7.58514 2.12827C7.90604 2.68386 7.71574 3.39395 7.16015 3.71454C6.60457 4.03543 5.89448 3.84513 5.57389 3.28955C5.253 2.73396 5.4433 2.02388 5.99888 1.70329C6.55446 1.38239 7.26455 1.57269 7.58514 2.12827" fill="white"/>
<path opacity="0.5" d="M7.16001 20.2868C7.71527 20.6074 7.90557 21.3178 7.58499 21.8731C7.26441 22.4287 6.554 22.619 5.99873 22.2984C5.44315 21.9775 5.25285 21.2674 5.57343 20.7118C5.89432 20.1565 6.60442 19.9662 7.16001 20.2868" fill="white"/>
<path opacity="0.5" d="M3.7138 16.8383C4.0347 17.3936 3.8444 18.104 3.28882 18.4246C2.73323 18.7452 2.02314 18.5549 1.70256 17.9996C1.38166 17.444 1.57196 16.7339 2.12754 16.413C2.68313 16.0924 3.39322 16.2827 3.7138 16.8383" fill="white"/>
<path d="M12 0.000490175V2.32307C15.4577 2.32307 18.6526 4.16763 20.3817 7.16204C22.1103 10.1561 22.1103 13.8453 20.3817 16.8393C18.653 19.8337 15.4581 21.6783 12 21.6783V24.0009C16.2875 24.0009 20.2493 21.7134 22.3925 18.0006C24.536 14.2878 24.536 9.71292 22.3925 6.00026C20.2487 2.2871 16.2872 0 12 0V0.000490175Z" fill="white"/>
<path d="M15.8246 8.08301L10.4514 13.4562L7.78816 10.7929L6.14697 12.4341L9.63084 15.9179V15.9183C10.0843 16.371 10.8186 16.371 11.272 15.9183L17.4658 9.72452L15.8246 8.08301Z" fill="white"/>
</svg>
